<?xml version="1.0" standalone="no"?>
<!DOCTYPE svg PUBLIC "-//W3C//DTD SVG 20010904//EN"
 "http://www.w3.org/TR/2001/REC-SVG-20010904/DTD/svg10.dtd">
<svg version="1.0" xmlns="http://www.w3.org/2000/svg"
 width="900.000000pt" height="900.000000pt" viewBox="0 0 900.000000 900.000000"
 preserveAspectRatio="xMidYMid meet">
<metadata>
Created by potrace 1.10, written by Peter Selinger 2001-2011
</metadata>
<g transform="translate(0.000000,900.000000) scale(0.100000,-0.100000)"
fill="#000000" stroke="none">
<path d="M5871 6263 c-37 -38 -98 -104 -136 -147 -39 -44 -77 -87 -85 -95 -9
-9 -45 -50 -80 -91 -36 -41 -72 -81 -80 -90 -46 -50 -93 -103 -145 -165 -59
-71 -116 -127 -122 -122 -1 2 2 17 7 33 56 176 59 200 33 208 -20 6 -341 1
-347 -5 -12 -14 -36 -71 -36 -87 0 -11 -7 -33 -15 -48 -8 -16 -15 -37 -15 -46
0 -10 -6 -32 -14 -50 -8 -18 -26 -73 -41 -123 -15 -49 -35 -115 -45 -145 -10
-30 -32 -102 -50 -160 -18 -58 -46 -144 -61 -192 -16 -47 -29 -93 -29 -102 0
-14 24 -16 200 -16 199 0 201 0 209 23 16 43 32 92 45 137 39 131 95 310 109
343 15 34 19 37 55 37 47 0 127 -26 165 -54 15 -11 37 -40 48 -64 20 -41 21
-54 15 -168 l-6 -124 194 0 c150 0 196 3 205 13 6 8 16 38 22 68 6 30 15 72
20 94 4 22 8 86 9 143 0 103 -10 142 -52 192 -26 32 -87 71 -129 83 -29 8 -44
19 -44 29 0 9 159 177 353 373 193 197 352 361 352 365 0 17 -39 20 -238 20
l-205 0 -66 -67z"/>
<path d="M2823 6278 c-5 -7 -24 -60 -42 -118 -18 -58 -39 -121 -46 -140 -7
-19 -21 -62 -30 -95 -10 -33 -23 -76 -30 -95 -7 -19 -27 -82 -45 -140 -18 -58
-39 -120 -46 -138 -8 -18 -14 -39 -14 -47 0 -8 -6 -29 -14 -47 -7 -18 -21 -58
-29 -88 -9 -30 -23 -81 -32 -113 -10 -32 -17 -95 -18 -140 -1 -72 2 -87 26
-123 71 -112 207 -165 422 -165 262 1 454 99 627 321 19 25 38 52 41 60 4 8
21 40 39 70 17 30 40 78 50 105 32 84 79 218 87 250 4 17 26 84 48 150 22 66
61 188 88 270 26 83 54 165 62 184 8 19 10 38 5 43 -4 4 -97 7 -206 6 l-197
-3 -35 -105 c-18 -58 -41 -127 -50 -155 -8 -27 -21 -66 -28 -85 -30 -81 -38
-107 -46 -140 -8 -33 -13 -49 -45 -140 -7 -19 -28 -82 -45 -140 -18 -58 -39
-119 -47 -137 -7 -17 -13 -37 -13 -45 0 -8 -7 -23 -15 -34 -8 -10 -15 -24 -15
-31 0 -21 -60 -102 -95 -129 -39 -29 -124 -42 -167 -25 -17 6 -33 25 -43 48
-22 52 -14 97 66 363 17 58 37 120 45 138 8 18 14 41 14 52 0 11 6 34 14 52 8
18 28 80 46 138 17 58 49 160 71 227 21 67 39 128 39 137 0 14 -24 16 -194 16
-143 0 -196 -3 -203 -12z"/>
<path d="M4071 6268 c-4 -13 -20 -63 -36 -113 -15 -49 -33 -105 -41 -123 -8
-18 -14 -40 -14 -48 0 -9 -8 -29 -17 -44 -14 -24 -14 -31 -4 -44 11 -13 41
-15 194 -13 208 2 202 5 173 -87 -9 -28 -36 -114 -61 -191 -25 -77 -59 -185
-76 -240 -18 -55 -36 -111 -42 -125 -5 -14 -13 -41 -18 -60 -4 -19 -22 -75
-39 -124 -17 -49 -29 -95 -26 -103 4 -10 50 -13 214 -13 l208 0 18 58 c53 164
75 236 105 332 18 58 38 116 43 130 6 14 14 41 18 60 5 19 13 50 19 68 34 101
35 104 65 211 26 92 25 91 211 91 118 0 165 3 173 13 6 6 25 57 42 112 18 55
43 133 56 174 13 40 24 80 24 87 0 12 -94 14 -590 14 l-590 0 -9 -22z"/>
<path d="M5515 4880 c-99 -6 -203 -22 -260 -42 -16 -5 -44 -13 -62 -18 -59
-14 -200 -89 -280 -148 -151 -112 -285 -296 -341 -467 -49 -149 -52 -167 -52
-285 0 -104 3 -124 25 -174 45 -102 143 -182 275 -225 51 -17 243 -41 324 -41
92 0 286 24 356 43 243 68 425 193 551 379 22 32 38 66 35 74 -4 11 -41 14
-208 14 l-203 0 -58 -59 c-72 -72 -172 -124 -281 -146 -131 -26 -254 5 -307
77 -26 36 -29 49 -29 112 1 206 154 449 350 554 97 53 268 69 339 33 48 -25
89 -78 93 -122 l3 -34 220 0 220 0 14 63 c18 79 4 182 -33 241 -25 40 -105
111 -124 111 -6 0 -23 6 -39 14 -75 38 -309 59 -528 46z"/>
<path d="M3254 4824 c-9 -22 -20 -52 -25 -69 -4 -16 -44 -136 -89 -265 -45
-129 -85 -248 -89 -265 -7 -27 -121 -365 -141 -419 -18 -50 -32 -93 -40 -121
-5 -16 -20 -61 -34 -99 -13 -39 -23 -74 -20 -78 3 -4 175 -8 382 -8 324 0 394
3 497 20 66 10 136 24 155 31 192 66 287 121 406 239 129 128 232 308 264 465
5 22 13 53 19 68 6 16 11 76 10 135 0 126 -14 169 -77 243 -49 56 -103 90
-200 126 l-67 25 -468 5 -467 5 -16 -38z m733 -272 c29 -19 56 -46 66 -67 36
-76 12 -245 -55 -380 -45 -92 -53 -104 -100 -160 -110 -132 -218 -175 -442
-175 l-138 0 5 33 c3 17 22 77 42 132 20 55 40 114 45 130 9 32 24 77 46 135
7 19 27 80 44 135 17 55 38 115 46 133 8 18 14 41 14 51 0 10 10 31 22 46 l21
27 167 -4 167 -4 50 -32z"/>
<path d="M2703 3265 c-45 -19 -78 -88 -69 -140 10 -53 63 -105 106 -105 84 0
139 88 109 173 -24 67 -87 99 -146 72z m81 -60 c34 -51 10 -135 -39 -135 -51
0 -75 95 -35 138 27 29 54 28 74 -3z"/>
<path d="M2322 3258 c-17 -17 -15 -141 2 -183 26 -63 97 -75 147 -26 28 28 29
33 29 119 0 75 -3 91 -17 96 -27 11 -38 -11 -35 -72 5 -94 -28 -146 -66 -108
-12 12 -18 40 -22 98 -5 81 -14 100 -38 76z"/>
<path d="M2913 3263 c-9 -3 -13 -37 -13 -120 0 -113 0 -114 23 -111 16 2 23
11 25 33 5 39 19 55 49 55 20 0 24 4 21 23 -2 16 -11 23 -31 25 -60 7 -40 62
23 62 43 0 54 8 39 27 -11 13 -109 18 -136 6z"/>
<path d="M3207 3263 c-15 -15 -6 -33 18 -33 35 0 45 -27 45 -119 0 -80 0 -81
25 -81 25 0 25 0 25 95 l0 95 28 6 c53 11 55 13 42 29 -9 11 -34 15 -95 15
-45 0 -85 -3 -88 -7z"/>
<path d="M3561 3256 c-8 -9 -11 -49 -9 -117 3 -96 4 -104 23 -104 15 0 21 8
23 33 4 44 32 42 63 -5 13 -21 32 -39 42 -41 31 -6 30 26 -2 76 -17 27 -31 55
-31 62 0 8 12 31 27 52 18 27 23 42 16 49 -16 16 -48 2 -61 -26 -6 -13 -20
-29 -32 -35 -18 -10 -20 -8 -20 18 0 37 -22 58 -39 38z"/>
<path d="M3953 3259 c-14 -14 -18 -164 -7 -207 9 -30 38 -25 42 8 6 37 21 50
58 50 69 0 107 77 63 130 -17 20 -32 25 -82 28 -42 2 -66 -1 -74 -9z m98 -39
c27 -15 24 -48 -5 -62 -35 -15 -56 -4 -56 31 0 38 24 50 61 31z"/>
<path d="M4200 3243 c-33 -30 -48 -88 -36 -136 10 -41 65 -87 104 -87 52 0
100 34 108 76 12 63 -1 126 -31 151 -39 34 -105 32 -145 -4z m114 -38 c47 -72
-21 -176 -78 -119 -22 21 -21 102 1 126 23 25 58 23 77 -7z"/>
<path d="M4443 3259 c-9 -9 -13 -47 -13 -116 0 -90 2 -103 19 -112 24 -13 38
2 43 44 3 27 7 30 45 33 32 2 48 10 68 33 31 38 32 60 1 95 -20 24 -32 28 -87
32 -43 2 -68 0 -76 -9z m113 -50 c24 -27 8 -54 -32 -54 -23 0 -30 5 -32 23 -8
53 28 70 64 31z"/>
<path d="M4765 3258 c-3 -8 -4 -63 -3 -124 l3 -109 42 -3 c93 -7 152 57 140
151 -8 62 -43 90 -116 95 -47 3 -62 1 -66 -10z m90 -34 c8 -4 23 -20 31 -36
12 -24 13 -36 4 -64 -14 -41 -44 -61 -66 -43 -18 15 -20 135 -1 142 6 3 13 6
14 6 1 1 9 -2 18 -5z"/>
<path d="M5042 3258 c-7 -7 -12 -19 -12 -27 -1 -9 -14 -54 -29 -101 -16 -47
-26 -88 -24 -92 10 -18 44 -7 53 17 7 20 16 25 42 25 26 0 37 -6 50 -31 15
-25 21 -28 37 -19 22 11 23 6 -23 145 -15 43 -32 83 -39 87 -18 11 -41 10 -55
-4z m44 -114 c-5 -13 -10 -14 -18 -6 -6 6 -8 18 -4 28 5 13 10 14 18 6 6 -6 8
-18 4 -28z"/>
<path d="M5217 3263 c-4 -3 -7 -58 -7 -120 0 -113 0 -114 23 -111 19 3 23 11
27 52 3 27 10 51 17 53 7 3 22 -18 34 -47 12 -28 29 -55 38 -59 35 -18 41 -3
41 113 0 62 -3 116 -7 119 -16 16 -33 -19 -33 -67 l0 -51 -25 29 c-14 16 -25
34 -25 41 0 32 -63 69 -83 48z"/>
<path d="M5478 3250 c-78 -61 -37 -229 55 -230 53 0 111 50 92 80 -10 16 -30
12 -50 -10 -37 -41 -85 -8 -85 58 0 65 55 108 80 62 13 -24 48 -26 57 -3 4 10
-3 24 -21 40 -34 29 -93 31 -128 3z"/>
<path d="M5672 3258 c-8 -8 -12 -47 -12 -109 0 -121 7 -131 89 -127 49 3 56 6
59 25 3 19 -2 22 -40 25 -36 2 -44 7 -46 26 -3 18 8 29 21 20 1 -1 12 4 25 11
30 16 23 35 -14 41 -23 4 -29 10 -29 30 0 22 5 25 40 28 47 4 67 18 45 32 -22
14 -124 12 -138 -2z"/>
<path d="M5963 3258 c-24 -12 -53 -74 -53 -114 0 -67 51 -124 110 -124 42 0
98 53 80 75 -16 20 -22 19 -50 -5 -29 -25 -42 -25 -66 1 -27 29 -25 93 4 121
l22 22 30 -23 c54 -40 88 -16 45 32 -28 29 -79 36 -122 15z"/>
<path d="M6302 3258 c-7 -7 -12 -44 -12 -98 0 -83 1 -86 31 -113 38 -33 85
-36 123 -6 25 20 26 25 26 118 0 102 -3 113 -26 104 -10 -4 -14 -25 -14 -83 0
-58 -4 -83 -16 -94 -18 -19 -20 -19 -45 -6 -16 9 -19 22 -19 94 0 67 -3 85
-16 90 -20 8 -18 8 -32 -6z"/>
<path d="M6528 3260 c-26 -16 -26 -200 -1 -225 21 -21 87 -16 126 10 30 19 38
70 15 93 -10 10 -10 17 0 32 31 50 -1 91 -75 97 -27 2 -56 -1 -65 -7z m87 -60
c0 -29 -38 -41 -48 -16 -10 26 4 47 27 44 15 -2 21 -10 21 -28z m5 -86 c11
-12 10 -18 -3 -31 -21 -21 -47 -9 -47 22 0 29 29 35 50 9z"/>
<path d="M6147 3254 c-4 -4 -7 -54 -7 -110 0 -118 4 -124 84 -124 35 0 48 5
56 19 15 29 13 31 -30 31 -49 0 -52 6 -54 108 -1 69 -3 77 -21 80 -12 2 -24 0
-28 -4z"/>
<path d="M3776 3161 c-14 -22 7 -41 44 -41 38 0 67 21 55 40 -8 12 -92 14 -99
1z"/>
</g>
</svg>
